<mxfile host="app.diagrams.net" modified="2023-07-03T08:01:17.830Z" agent="Mozilla/5.0 (Windows NT 10.0; Win64; x64) AppleWebKit/537.36 (KHTML, like Gecko) Chrome/114.0.0.0 Safari/537.36" etag="pzPB41e4FvtRntq9XAZh" version="21.5.2" type="device">
  <diagram name="第 1 页" id="BXewia8EVomgx7ZCaBAO">
    <mxGraphModel dx="2140" dy="517" grid="0" gridSize="10" guides="1" tooltips="1" connect="1" arrows="1" fold="1" page="1" pageScale="1" pageWidth="850" pageHeight="1100" math="0" shadow="0">
      <root>
        <mxCell id="0" />
        <mxCell id="1" parent="0" />
        <mxCell id="QQ0hsMi-_QrQO46xUWMQ-4" style="edgeStyle=orthogonalEdgeStyle;rounded=0;orthogonalLoop=1;jettySize=auto;html=1;exitX=1;exitY=0.5;exitDx=0;exitDy=0;entryX=0;entryY=0.5;entryDx=0;entryDy=0;" parent="1" source="QQ0hsMi-_QrQO46xUWMQ-1" target="QQ0hsMi-_QrQO46xUWMQ-3" edge="1">
          <mxGeometry relative="1" as="geometry" />
        </mxCell>
        <mxCell id="QQ0hsMi-_QrQO46xUWMQ-1" value="pc" style="rounded=0;whiteSpace=wrap;html=1;" parent="1" vertex="1">
          <mxGeometry x="100" y="495" width="40" height="50" as="geometry" />
        </mxCell>
        <mxCell id="QQ0hsMi-_QrQO46xUWMQ-2" value="pc_out" style="text;html=1;strokeColor=none;fillColor=none;align=center;verticalAlign=middle;whiteSpace=wrap;rounded=0;" parent="1" vertex="1">
          <mxGeometry x="90" y="550" width="60" height="30" as="geometry" />
        </mxCell>
        <mxCell id="QQ0hsMi-_QrQO46xUWMQ-6" style="edgeStyle=orthogonalEdgeStyle;rounded=0;orthogonalLoop=1;jettySize=auto;html=1;exitX=1;exitY=0.5;exitDx=0;exitDy=0;entryX=0;entryY=0.5;entryDx=0;entryDy=0;" parent="1" source="QQ0hsMi-_QrQO46xUWMQ-3" target="QQ0hsMi-_QrQO46xUWMQ-5" edge="1">
          <mxGeometry relative="1" as="geometry" />
        </mxCell>
        <mxCell id="QQ0hsMi-_QrQO46xUWMQ-3" value="IMEM" style="rounded=0;whiteSpace=wrap;html=1;" parent="1" vertex="1">
          <mxGeometry x="180" y="465" width="60" height="110" as="geometry" />
        </mxCell>
        <mxCell id="QQ0hsMi-_QrQO46xUWMQ-97" style="edgeStyle=orthogonalEdgeStyle;rounded=0;orthogonalLoop=1;jettySize=auto;html=1;exitX=0.5;exitY=0;exitDx=0;exitDy=0;entryX=0.5;entryY=1;entryDx=0;entryDy=0;" parent="1" source="QQ0hsMi-_QrQO46xUWMQ-5" target="QQ0hsMi-_QrQO46xUWMQ-95" edge="1">
          <mxGeometry relative="1" as="geometry" />
        </mxCell>
        <mxCell id="QQ0hsMi-_QrQO46xUWMQ-5" value="IR" style="rounded=0;whiteSpace=wrap;html=1;" parent="1" vertex="1">
          <mxGeometry x="280" y="425" width="80" height="190" as="geometry" />
        </mxCell>
        <mxCell id="QQ0hsMi-_QrQO46xUWMQ-7" value="op" style="text;html=1;strokeColor=none;fillColor=none;align=center;verticalAlign=middle;whiteSpace=wrap;rounded=0;" parent="1" vertex="1">
          <mxGeometry x="320" y="440" width="50" height="40" as="geometry" />
        </mxCell>
        <mxCell id="QQ0hsMi-_QrQO46xUWMQ-17" style="edgeStyle=orthogonalEdgeStyle;rounded=0;orthogonalLoop=1;jettySize=auto;html=1;" parent="1" target="QQ0hsMi-_QrQO46xUWMQ-16" edge="1">
          <mxGeometry relative="1" as="geometry">
            <mxPoint x="360" y="485" as="sourcePoint" />
          </mxGeometry>
        </mxCell>
        <mxCell id="QQ0hsMi-_QrQO46xUWMQ-8" value="rdc" style="text;html=1;strokeColor=none;fillColor=none;align=center;verticalAlign=middle;whiteSpace=wrap;rounded=0;" parent="1" vertex="1">
          <mxGeometry x="320" y="465" width="50" height="40" as="geometry" />
        </mxCell>
        <mxCell id="QQ0hsMi-_QrQO46xUWMQ-34" style="edgeStyle=orthogonalEdgeStyle;rounded=0;orthogonalLoop=1;jettySize=auto;html=1;exitX=1;exitY=0.5;exitDx=0;exitDy=0;entryX=-0.08;entryY=0.58;entryDx=0;entryDy=0;entryPerimeter=0;" parent="1" source="QQ0hsMi-_QrQO46xUWMQ-9" target="QQ0hsMi-_QrQO46xUWMQ-21" edge="1">
          <mxGeometry relative="1" as="geometry">
            <mxPoint x="410" y="530" as="targetPoint" />
          </mxGeometry>
        </mxCell>
        <mxCell id="QQ0hsMi-_QrQO46xUWMQ-9" value="rsc" style="text;html=1;strokeColor=none;fillColor=none;align=center;verticalAlign=middle;whiteSpace=wrap;rounded=0;" parent="1" vertex="1">
          <mxGeometry x="320" y="490" width="40" height="40" as="geometry" />
        </mxCell>
        <mxCell id="QQ0hsMi-_QrQO46xUWMQ-28" style="edgeStyle=orthogonalEdgeStyle;rounded=0;orthogonalLoop=1;jettySize=auto;html=1;exitX=1;exitY=0.5;exitDx=0;exitDy=0;entryX=0.04;entryY=0.627;entryDx=0;entryDy=0;entryPerimeter=0;" parent="1" source="QQ0hsMi-_QrQO46xUWMQ-10" target="QQ0hsMi-_QrQO46xUWMQ-22" edge="1">
          <mxGeometry relative="1" as="geometry" />
        </mxCell>
        <mxCell id="QQ0hsMi-_QrQO46xUWMQ-10" value="rtc" style="text;html=1;strokeColor=none;fillColor=none;align=center;verticalAlign=middle;whiteSpace=wrap;rounded=0;" parent="1" vertex="1">
          <mxGeometry x="330" y="530" width="30" height="40" as="geometry" />
        </mxCell>
        <mxCell id="QQ0hsMi-_QrQO46xUWMQ-12" value="31" style="text;html=1;align=center;verticalAlign=middle;resizable=0;points=[];autosize=1;strokeColor=none;fillColor=none;" parent="1" vertex="1">
          <mxGeometry x="320" y="425" width="40" height="30" as="geometry" />
        </mxCell>
        <mxCell id="QQ0hsMi-_QrQO46xUWMQ-56" style="edgeStyle=orthogonalEdgeStyle;rounded=0;orthogonalLoop=1;jettySize=auto;html=1;entryX=0;entryY=0.5;entryDx=0;entryDy=0;" parent="1" source="QQ0hsMi-_QrQO46xUWMQ-14" target="QQ0hsMi-_QrQO46xUWMQ-37" edge="1">
          <mxGeometry relative="1" as="geometry">
            <mxPoint x="380" y="320" as="targetPoint" />
            <Array as="points">
              <mxPoint x="380" y="600" />
              <mxPoint x="380" y="315" />
            </Array>
          </mxGeometry>
        </mxCell>
        <mxCell id="QQ0hsMi-_QrQO46xUWMQ-14" value="0" style="text;html=1;align=center;verticalAlign=middle;resizable=0;points=[];autosize=1;strokeColor=none;fillColor=none;" parent="1" vertex="1">
          <mxGeometry x="330" y="585" width="30" height="30" as="geometry" />
        </mxCell>
        <mxCell id="QQ0hsMi-_QrQO46xUWMQ-15" value="Regfile" style="rounded=0;whiteSpace=wrap;html=1;" parent="1" vertex="1">
          <mxGeometry x="570" y="385" width="60" height="165" as="geometry" />
        </mxCell>
        <mxCell id="QQ0hsMi-_QrQO46xUWMQ-25" style="edgeStyle=orthogonalEdgeStyle;rounded=0;orthogonalLoop=1;jettySize=auto;html=1;exitX=1;exitY=0.5;exitDx=0;exitDy=0;" parent="1" source="QQ0hsMi-_QrQO46xUWMQ-16" target="QQ0hsMi-_QrQO46xUWMQ-19" edge="1">
          <mxGeometry relative="1" as="geometry">
            <mxPoint x="520" y="420" as="targetPoint" />
            <Array as="points">
              <mxPoint x="520" y="475" />
              <mxPoint x="520" y="430" />
            </Array>
          </mxGeometry>
        </mxCell>
        <mxCell id="QQ0hsMi-_QrQO46xUWMQ-16" value="MUX5" style="rounded=0;whiteSpace=wrap;html=1;" parent="1" vertex="1">
          <mxGeometry x="450" y="437.5" width="40" height="60" as="geometry" />
        </mxCell>
        <mxCell id="QQ0hsMi-_QrQO46xUWMQ-18" value="rd" style="text;html=1;align=center;verticalAlign=middle;resizable=0;points=[];autosize=1;strokeColor=none;fillColor=none;" parent="1" vertex="1">
          <mxGeometry x="570" y="380" width="30" height="30" as="geometry" />
        </mxCell>
        <mxCell id="QQ0hsMi-_QrQO46xUWMQ-19" value="rdc" style="text;html=1;align=center;verticalAlign=middle;resizable=0;points=[];autosize=1;strokeColor=none;fillColor=none;" parent="1" vertex="1">
          <mxGeometry x="565" y="415" width="40" height="30" as="geometry" />
        </mxCell>
        <mxCell id="QQ0hsMi-_QrQO46xUWMQ-21" value="rsc" style="text;html=1;align=center;verticalAlign=middle;resizable=0;points=[];autosize=1;strokeColor=none;fillColor=none;" parent="1" vertex="1">
          <mxGeometry x="570" y="490" width="40" height="30" as="geometry" />
        </mxCell>
        <mxCell id="QQ0hsMi-_QrQO46xUWMQ-22" value="rtc" style="text;html=1;align=center;verticalAlign=middle;resizable=0;points=[];autosize=1;strokeColor=none;fillColor=none;" parent="1" vertex="1">
          <mxGeometry x="570" y="515" width="40" height="30" as="geometry" />
        </mxCell>
        <mxCell id="QQ0hsMi-_QrQO46xUWMQ-23" value="rs" style="text;html=1;align=center;verticalAlign=middle;resizable=0;points=[];autosize=1;strokeColor=none;fillColor=none;" parent="1" vertex="1">
          <mxGeometry x="605" y="490" width="30" height="30" as="geometry" />
        </mxCell>
        <mxCell id="QQ0hsMi-_QrQO46xUWMQ-54" style="edgeStyle=orthogonalEdgeStyle;rounded=0;orthogonalLoop=1;jettySize=auto;html=1;entryX=-0.07;entryY=0.094;entryDx=0;entryDy=0;entryPerimeter=0;" parent="1" target="QQ0hsMi-_QrQO46xUWMQ-47" edge="1">
          <mxGeometry relative="1" as="geometry">
            <mxPoint x="680" y="580" as="targetPoint" />
            <mxPoint x="630" y="535" as="sourcePoint" />
            <Array as="points">
              <mxPoint x="690" y="535" />
              <mxPoint x="690" y="618" />
            </Array>
          </mxGeometry>
        </mxCell>
        <mxCell id="QQ0hsMi-_QrQO46xUWMQ-24" value="rt" style="text;html=1;align=center;verticalAlign=middle;resizable=0;points=[];autosize=1;strokeColor=none;fillColor=none;" parent="1" vertex="1">
          <mxGeometry x="605" y="520" width="30" height="30" as="geometry" />
        </mxCell>
        <mxCell id="QQ0hsMi-_QrQO46xUWMQ-29" value="" style="endArrow=classic;html=1;rounded=0;entryX=0;entryY=1;entryDx=0;entryDy=0;" parent="1" target="QQ0hsMi-_QrQO46xUWMQ-16" edge="1">
          <mxGeometry width="50" height="50" relative="1" as="geometry">
            <mxPoint x="430" y="550" as="sourcePoint" />
            <mxPoint x="430" y="500" as="targetPoint" />
            <Array as="points">
              <mxPoint x="430" y="498" />
            </Array>
          </mxGeometry>
        </mxCell>
        <mxCell id="QQ0hsMi-_QrQO46xUWMQ-57" style="edgeStyle=orthogonalEdgeStyle;rounded=0;orthogonalLoop=1;jettySize=auto;html=1;exitX=0.5;exitY=1;exitDx=0;exitDy=0;entryX=0;entryY=0.25;entryDx=0;entryDy=0;" parent="1" source="QQ0hsMi-_QrQO46xUWMQ-31" target="QQ0hsMi-_QrQO46xUWMQ-16" edge="1">
          <mxGeometry relative="1" as="geometry" />
        </mxCell>
        <mxCell id="QQ0hsMi-_QrQO46xUWMQ-31" value="reg31" style="text;html=1;strokeColor=none;fillColor=none;align=center;verticalAlign=middle;whiteSpace=wrap;rounded=0;" parent="1" vertex="1">
          <mxGeometry x="400" y="380" width="60" height="30" as="geometry" />
        </mxCell>
        <mxCell id="QQ0hsMi-_QrQO46xUWMQ-69" style="edgeStyle=orthogonalEdgeStyle;rounded=0;orthogonalLoop=1;jettySize=auto;html=1;exitX=1;exitY=0.5;exitDx=0;exitDy=0;entryX=0;entryY=0;entryDx=0;entryDy=0;" parent="1" source="QQ0hsMi-_QrQO46xUWMQ-37" target="QQ0hsMi-_QrQO46xUWMQ-43" edge="1">
          <mxGeometry relative="1" as="geometry">
            <mxPoint x="690" y="480" as="targetPoint" />
            <Array as="points">
              <mxPoint x="520" y="315" />
              <mxPoint x="520" y="350" />
              <mxPoint x="690" y="350" />
              <mxPoint x="690" y="455" />
            </Array>
          </mxGeometry>
        </mxCell>
        <mxCell id="QQ0hsMi-_QrQO46xUWMQ-37" value="EXT5" style="whiteSpace=wrap;html=1;aspect=fixed;" parent="1" vertex="1">
          <mxGeometry x="425" y="290" width="50" height="50" as="geometry" />
        </mxCell>
        <mxCell id="QQ0hsMi-_QrQO46xUWMQ-38" value="rd" style="text;html=1;align=center;verticalAlign=middle;resizable=0;points=[];autosize=1;strokeColor=none;fillColor=none;" parent="1" vertex="1">
          <mxGeometry x="597.5" y="415" width="30" height="30" as="geometry" />
        </mxCell>
        <mxCell id="QQ0hsMi-_QrQO46xUWMQ-39" value="rf_w" style="text;html=1;align=center;verticalAlign=middle;resizable=0;points=[];autosize=1;strokeColor=none;fillColor=none;" parent="1" vertex="1">
          <mxGeometry x="575" y="550" width="50" height="30" as="geometry" />
        </mxCell>
        <mxCell id="QQ0hsMi-_QrQO46xUWMQ-148" style="edgeStyle=orthogonalEdgeStyle;rounded=0;orthogonalLoop=1;jettySize=auto;html=1;exitX=1;exitY=0.25;exitDx=0;exitDy=0;" parent="1" source="QQ0hsMi-_QrQO46xUWMQ-41" edge="1">
          <mxGeometry relative="1" as="geometry">
            <mxPoint x="860" y="843" as="targetPoint" />
          </mxGeometry>
        </mxCell>
        <mxCell id="QQ0hsMi-_QrQO46xUWMQ-41" value="CP0" style="rounded=0;whiteSpace=wrap;html=1;" parent="1" vertex="1">
          <mxGeometry x="700" y="810" width="105" height="130" as="geometry" />
        </mxCell>
        <mxCell id="QQ0hsMi-_QrQO46xUWMQ-79" style="edgeStyle=orthogonalEdgeStyle;rounded=0;orthogonalLoop=1;jettySize=auto;html=1;exitX=1;exitY=0.75;exitDx=0;exitDy=0;" parent="1" source="QQ0hsMi-_QrQO46xUWMQ-42" edge="1">
          <mxGeometry relative="1" as="geometry">
            <mxPoint x="990" y="585" as="targetPoint" />
          </mxGeometry>
        </mxCell>
        <mxCell id="QQ0hsMi-_QrQO46xUWMQ-203" style="edgeStyle=orthogonalEdgeStyle;rounded=0;orthogonalLoop=1;jettySize=auto;html=1;exitX=1;exitY=0;exitDx=0;exitDy=0;entryX=0.25;entryY=0;entryDx=0;entryDy=0;" parent="1" source="QQ0hsMi-_QrQO46xUWMQ-42" target="QQ0hsMi-_QrQO46xUWMQ-199" edge="1">
          <mxGeometry relative="1" as="geometry" />
        </mxCell>
        <mxCell id="QQ0hsMi-_QrQO46xUWMQ-42" value="ALU" style="rounded=0;whiteSpace=wrap;html=1;" parent="1" vertex="1">
          <mxGeometry x="850" y="471" width="80" height="149" as="geometry" />
        </mxCell>
        <mxCell id="QQ0hsMi-_QrQO46xUWMQ-44" style="edgeStyle=orthogonalEdgeStyle;rounded=0;orthogonalLoop=1;jettySize=auto;html=1;entryX=0;entryY=0.75;entryDx=0;entryDy=0;" parent="1" target="QQ0hsMi-_QrQO46xUWMQ-43" edge="1">
          <mxGeometry relative="1" as="geometry">
            <mxPoint x="630" y="507" as="sourcePoint" />
          </mxGeometry>
        </mxCell>
        <mxCell id="QQ0hsMi-_QrQO46xUWMQ-71" style="edgeStyle=orthogonalEdgeStyle;rounded=0;orthogonalLoop=1;jettySize=auto;html=1;exitX=1;exitY=0.5;exitDx=0;exitDy=0;" parent="1" source="QQ0hsMi-_QrQO46xUWMQ-43" target="QQ0hsMi-_QrQO46xUWMQ-45" edge="1">
          <mxGeometry relative="1" as="geometry" />
        </mxCell>
        <mxCell id="QQ0hsMi-_QrQO46xUWMQ-43" value="MUX1" style="rounded=0;whiteSpace=wrap;html=1;" parent="1" vertex="1">
          <mxGeometry x="720" y="455" width="40" height="60" as="geometry" />
        </mxCell>
        <mxCell id="QQ0hsMi-_QrQO46xUWMQ-45" value="A" style="text;html=1;align=center;verticalAlign=middle;resizable=0;points=[];autosize=1;strokeColor=none;fillColor=none;" parent="1" vertex="1">
          <mxGeometry x="850" y="480" width="30" height="30" as="geometry" />
        </mxCell>
        <mxCell id="QQ0hsMi-_QrQO46xUWMQ-46" value="B" style="text;html=1;align=center;verticalAlign=middle;resizable=0;points=[];autosize=1;strokeColor=none;fillColor=none;" parent="1" vertex="1">
          <mxGeometry x="850" y="590" width="30" height="30" as="geometry" />
        </mxCell>
        <mxCell id="QQ0hsMi-_QrQO46xUWMQ-61" style="edgeStyle=orthogonalEdgeStyle;rounded=0;orthogonalLoop=1;jettySize=auto;html=1;exitX=0.987;exitY=0.607;exitDx=0;exitDy=0;entryX=0;entryY=1;entryDx=0;entryDy=0;exitPerimeter=0;" parent="1" source="QQ0hsMi-_QrQO46xUWMQ-51" target="QQ0hsMi-_QrQO46xUWMQ-47" edge="1">
          <mxGeometry relative="1" as="geometry">
            <Array as="points">
              <mxPoint x="710" y="728" />
              <mxPoint x="710" y="695" />
            </Array>
          </mxGeometry>
        </mxCell>
        <mxCell id="QQ0hsMi-_QrQO46xUWMQ-72" style="edgeStyle=orthogonalEdgeStyle;rounded=0;orthogonalLoop=1;jettySize=auto;html=1;exitX=1;exitY=0.5;exitDx=0;exitDy=0;entryX=0;entryY=0.633;entryDx=0;entryDy=0;entryPerimeter=0;" parent="1" source="QQ0hsMi-_QrQO46xUWMQ-47" target="QQ0hsMi-_QrQO46xUWMQ-46" edge="1">
          <mxGeometry relative="1" as="geometry" />
        </mxCell>
        <mxCell id="QQ0hsMi-_QrQO46xUWMQ-47" value="MUX2" style="rounded=0;whiteSpace=wrap;html=1;" parent="1" vertex="1">
          <mxGeometry x="730" y="610" width="40" height="85" as="geometry" />
        </mxCell>
        <mxCell id="QQ0hsMi-_QrQO46xUWMQ-70" style="edgeStyle=orthogonalEdgeStyle;rounded=0;orthogonalLoop=1;jettySize=auto;html=1;entryX=-0.01;entryY=0.367;entryDx=0;entryDy=0;entryPerimeter=0;" parent="1" source="QQ0hsMi-_QrQO46xUWMQ-49" target="QQ0hsMi-_QrQO46xUWMQ-43" edge="1">
          <mxGeometry relative="1" as="geometry" />
        </mxCell>
        <mxCell id="QQ0hsMi-_QrQO46xUWMQ-49" value="PC" style="text;html=1;align=center;verticalAlign=middle;resizable=0;points=[];autosize=1;strokeColor=none;fillColor=none;" parent="1" vertex="1">
          <mxGeometry x="625" y="450" width="40" height="30" as="geometry" />
        </mxCell>
        <mxCell id="QQ0hsMi-_QrQO46xUWMQ-51" value="4" style="text;html=1;align=center;verticalAlign=middle;resizable=0;points=[];autosize=1;strokeColor=none;fillColor=none;" parent="1" vertex="1">
          <mxGeometry x="650" y="710" width="30" height="30" as="geometry" />
        </mxCell>
        <mxCell id="QQ0hsMi-_QrQO46xUWMQ-65" style="edgeStyle=orthogonalEdgeStyle;rounded=0;orthogonalLoop=1;jettySize=auto;html=1;exitX=0;exitY=0.5;exitDx=0;exitDy=0;entryX=0;entryY=0.5;entryDx=0;entryDy=0;" parent="1" target="QQ0hsMi-_QrQO46xUWMQ-53" edge="1">
          <mxGeometry relative="1" as="geometry">
            <mxPoint x="380" y="600" as="sourcePoint" />
            <Array as="points">
              <mxPoint x="380" y="678" />
            </Array>
          </mxGeometry>
        </mxCell>
        <mxCell id="QQ0hsMi-_QrQO46xUWMQ-67" style="edgeStyle=orthogonalEdgeStyle;rounded=0;orthogonalLoop=1;jettySize=auto;html=1;exitX=1;exitY=0.5;exitDx=0;exitDy=0;entryX=0;entryY=0.75;entryDx=0;entryDy=0;" parent="1" source="QQ0hsMi-_QrQO46xUWMQ-53" target="QQ0hsMi-_QrQO46xUWMQ-47" edge="1">
          <mxGeometry relative="1" as="geometry" />
        </mxCell>
        <mxCell id="QQ0hsMi-_QrQO46xUWMQ-53" value="EXT18" style="rounded=0;whiteSpace=wrap;html=1;" parent="1" vertex="1">
          <mxGeometry x="470" y="660" width="70" height="35" as="geometry" />
        </mxCell>
        <mxCell id="QQ0hsMi-_QrQO46xUWMQ-63" style="edgeStyle=orthogonalEdgeStyle;rounded=0;orthogonalLoop=1;jettySize=auto;html=1;entryX=0;entryY=0.5;entryDx=0;entryDy=0;" parent="1" source="QQ0hsMi-_QrQO46xUWMQ-14" target="QQ0hsMi-_QrQO46xUWMQ-55" edge="1">
          <mxGeometry relative="1" as="geometry" />
        </mxCell>
        <mxCell id="QQ0hsMi-_QrQO46xUWMQ-64" style="edgeStyle=orthogonalEdgeStyle;rounded=0;orthogonalLoop=1;jettySize=auto;html=1;exitX=1;exitY=0.5;exitDx=0;exitDy=0;entryX=-0.02;entryY=0.355;entryDx=0;entryDy=0;entryPerimeter=0;" parent="1" source="QQ0hsMi-_QrQO46xUWMQ-55" target="QQ0hsMi-_QrQO46xUWMQ-47" edge="1">
          <mxGeometry relative="1" as="geometry">
            <mxPoint x="640" y="650" as="targetPoint" />
            <Array as="points">
              <mxPoint x="570" y="608" />
              <mxPoint x="570" y="640" />
            </Array>
          </mxGeometry>
        </mxCell>
        <mxCell id="QQ0hsMi-_QrQO46xUWMQ-55" value="EXT16" style="rounded=0;whiteSpace=wrap;html=1;" parent="1" vertex="1">
          <mxGeometry x="470" y="590" width="70" height="35" as="geometry" />
        </mxCell>
        <mxCell id="QQ0hsMi-_QrQO46xUWMQ-58" value="imm[10:6]" style="text;html=1;align=center;verticalAlign=middle;resizable=0;points=[];autosize=1;strokeColor=none;fillColor=none;" parent="1" vertex="1">
          <mxGeometry x="350" y="280" width="80" height="30" as="geometry" />
        </mxCell>
        <mxCell id="QQ0hsMi-_QrQO46xUWMQ-59" value="imm[15:0]||0^2" style="text;html=1;align=center;verticalAlign=middle;resizable=0;points=[];autosize=1;strokeColor=none;fillColor=none;" parent="1" vertex="1">
          <mxGeometry x="375" y="650" width="100" height="30" as="geometry" />
        </mxCell>
        <mxCell id="QQ0hsMi-_QrQO46xUWMQ-62" value="signed" style="text;html=1;align=center;verticalAlign=middle;resizable=0;points=[];autosize=1;strokeColor=none;fillColor=none;" parent="1" vertex="1">
          <mxGeometry x="475" y="625" width="60" height="30" as="geometry" />
        </mxCell>
        <mxCell id="QQ0hsMi-_QrQO46xUWMQ-66" value="imm[15:0]" style="text;html=1;align=center;verticalAlign=middle;resizable=0;points=[];autosize=1;strokeColor=none;fillColor=none;" parent="1" vertex="1">
          <mxGeometry x="390" y="575" width="80" height="30" as="geometry" />
        </mxCell>
        <mxCell id="QQ0hsMi-_QrQO46xUWMQ-73" value="M2[1:0]" style="text;html=1;align=center;verticalAlign=middle;resizable=0;points=[];autosize=1;strokeColor=none;fillColor=none;" parent="1" vertex="1">
          <mxGeometry x="720" y="700" width="60" height="30" as="geometry" />
        </mxCell>
        <mxCell id="QQ0hsMi-_QrQO46xUWMQ-74" value="M5[1:0]" style="text;html=1;align=center;verticalAlign=middle;resizable=0;points=[];autosize=1;strokeColor=none;fillColor=none;" parent="1" vertex="1">
          <mxGeometry x="440" y="495" width="60" height="30" as="geometry" />
        </mxCell>
        <mxCell id="QQ0hsMi-_QrQO46xUWMQ-76" value="M1[1:0]" style="text;html=1;align=center;verticalAlign=middle;resizable=0;points=[];autosize=1;strokeColor=none;fillColor=none;" parent="1" vertex="1">
          <mxGeometry x="710" y="515" width="60" height="30" as="geometry" />
        </mxCell>
        <mxCell id="QQ0hsMi-_QrQO46xUWMQ-77" value="aluc[3:0]" style="text;html=1;align=center;verticalAlign=middle;resizable=0;points=[];autosize=1;strokeColor=none;fillColor=none;" parent="1" vertex="1">
          <mxGeometry x="865" y="630" width="70" height="30" as="geometry" />
        </mxCell>
        <mxCell id="QQ0hsMi-_QrQO46xUWMQ-78" value="DMEM" style="rounded=0;whiteSpace=wrap;html=1;" parent="1" vertex="1">
          <mxGeometry x="1050" y="445" width="90" height="110" as="geometry" />
        </mxCell>
        <mxCell id="QQ0hsMi-_QrQO46xUWMQ-80" value="zero" style="text;html=1;align=center;verticalAlign=middle;resizable=0;points=[];autosize=1;strokeColor=none;fillColor=none;" parent="1" vertex="1">
          <mxGeometry x="960" y="585" width="50" height="30" as="geometry" />
        </mxCell>
        <mxCell id="QQ0hsMi-_QrQO46xUWMQ-133" style="edgeStyle=orthogonalEdgeStyle;rounded=0;orthogonalLoop=1;jettySize=auto;html=1;" parent="1" target="QQ0hsMi-_QrQO46xUWMQ-81" edge="1">
          <mxGeometry relative="1" as="geometry">
            <mxPoint x="690" y="540" as="sourcePoint" />
            <Array as="points">
              <mxPoint x="800" y="460" />
            </Array>
          </mxGeometry>
        </mxCell>
        <mxCell id="QQ0hsMi-_QrQO46xUWMQ-81" value="data" style="text;html=1;align=center;verticalAlign=middle;resizable=0;points=[];autosize=1;strokeColor=none;fillColor=none;" parent="1" vertex="1">
          <mxGeometry x="1050" y="445" width="50" height="30" as="geometry" />
        </mxCell>
        <mxCell id="QQ0hsMi-_QrQO46xUWMQ-82" value="addr" style="text;html=1;align=center;verticalAlign=middle;resizable=0;points=[];autosize=1;strokeColor=none;fillColor=none;" parent="1" vertex="1">
          <mxGeometry x="1050" y="530" width="50" height="30" as="geometry" />
        </mxCell>
        <mxCell id="QQ0hsMi-_QrQO46xUWMQ-84" value="CS" style="text;html=1;align=center;verticalAlign=middle;resizable=0;points=[];autosize=1;strokeColor=none;fillColor=none;" parent="1" vertex="1">
          <mxGeometry x="1040" y="558" width="40" height="30" as="geometry" />
        </mxCell>
        <mxCell id="QQ0hsMi-_QrQO46xUWMQ-85" value="DM_W" style="text;html=1;align=center;verticalAlign=middle;resizable=0;points=[];autosize=1;strokeColor=none;fillColor=none;" parent="1" vertex="1">
          <mxGeometry x="1070" y="558" width="60" height="30" as="geometry" />
        </mxCell>
        <mxCell id="QQ0hsMi-_QrQO46xUWMQ-86" value="DM_R" style="text;html=1;align=center;verticalAlign=middle;resizable=0;points=[];autosize=1;strokeColor=none;fillColor=none;" parent="1" vertex="1">
          <mxGeometry x="1120" y="558" width="60" height="30" as="geometry" />
        </mxCell>
        <mxCell id="QQ0hsMi-_QrQO46xUWMQ-88" style="edgeStyle=orthogonalEdgeStyle;rounded=0;orthogonalLoop=1;jettySize=auto;html=1;exitX=0;exitY=0.5;exitDx=0;exitDy=0;entryX=0.053;entryY=0.727;entryDx=0;entryDy=0;entryPerimeter=0;" parent="1" source="QQ0hsMi-_QrQO46xUWMQ-87" target="QQ0hsMi-_QrQO46xUWMQ-18" edge="1">
          <mxGeometry relative="1" as="geometry">
            <mxPoint x="540" y="400" as="targetPoint" />
            <Array as="points">
              <mxPoint x="550" y="290" />
              <mxPoint x="550" y="402" />
            </Array>
          </mxGeometry>
        </mxCell>
        <mxCell id="QQ0hsMi-_QrQO46xUWMQ-208" style="edgeStyle=orthogonalEdgeStyle;rounded=0;orthogonalLoop=1;jettySize=auto;html=1;entryX=1;entryY=0.5;entryDx=0;entryDy=0;" parent="1" target="QQ0hsMi-_QrQO46xUWMQ-87" edge="1">
          <mxGeometry relative="1" as="geometry">
            <mxPoint x="991" y="562" as="sourcePoint" />
            <Array as="points">
              <mxPoint x="991" y="251" />
            </Array>
          </mxGeometry>
        </mxCell>
        <mxCell id="QQ0hsMi-_QrQO46xUWMQ-87" value="MUX4" style="rounded=0;whiteSpace=wrap;html=1;" parent="1" vertex="1">
          <mxGeometry x="710" y="175" width="40" height="151" as="geometry" />
        </mxCell>
        <mxCell id="QQ0hsMi-_QrQO46xUWMQ-92" style="edgeStyle=orthogonalEdgeStyle;rounded=0;orthogonalLoop=1;jettySize=auto;html=1;entryX=1;entryY=0.25;entryDx=0;entryDy=0;" parent="1" source="QQ0hsMi-_QrQO46xUWMQ-91" target="QQ0hsMi-_QrQO46xUWMQ-87" edge="1">
          <mxGeometry relative="1" as="geometry" />
        </mxCell>
        <mxCell id="QQ0hsMi-_QrQO46xUWMQ-91" value="乘积低位" style="text;html=1;align=center;verticalAlign=middle;resizable=0;points=[];autosize=1;strokeColor=none;fillColor=none;" parent="1" vertex="1">
          <mxGeometry x="792" y="199" width="66" height="26" as="geometry" />
        </mxCell>
        <mxCell id="QQ0hsMi-_QrQO46xUWMQ-94" value="M4[2:0]" style="text;html=1;align=center;verticalAlign=middle;resizable=0;points=[];autosize=1;strokeColor=none;fillColor=none;" parent="1" vertex="1">
          <mxGeometry x="700" y="328" width="60" height="30" as="geometry" />
        </mxCell>
        <mxCell id="QQ0hsMi-_QrQO46xUWMQ-99" style="edgeStyle=orthogonalEdgeStyle;rounded=0;orthogonalLoop=1;jettySize=auto;html=1;exitX=0.5;exitY=0;exitDx=0;exitDy=0;entryX=0.5;entryY=1;entryDx=0;entryDy=0;" parent="1" source="QQ0hsMi-_QrQO46xUWMQ-95" target="QQ0hsMi-_QrQO46xUWMQ-96" edge="1">
          <mxGeometry relative="1" as="geometry" />
        </mxCell>
        <mxCell id="QQ0hsMi-_QrQO46xUWMQ-95" value="decoder" style="rounded=0;whiteSpace=wrap;html=1;" parent="1" vertex="1">
          <mxGeometry x="120" y="230" width="190" height="30" as="geometry" />
        </mxCell>
        <mxCell id="QQ0hsMi-_QrQO46xUWMQ-96" value="control" style="rounded=0;whiteSpace=wrap;html=1;" parent="1" vertex="1">
          <mxGeometry x="75" y="160" width="280" height="30" as="geometry" />
        </mxCell>
        <mxCell id="QQ0hsMi-_QrQO46xUWMQ-101" style="edgeStyle=orthogonalEdgeStyle;rounded=0;orthogonalLoop=1;jettySize=auto;html=1;exitX=0;exitY=0.5;exitDx=0;exitDy=0;entryX=0;entryY=0.5;entryDx=0;entryDy=0;" parent="1" target="QQ0hsMi-_QrQO46xUWMQ-100" edge="1">
          <mxGeometry relative="1" as="geometry">
            <mxPoint x="680" y="500" as="sourcePoint" />
            <Array as="points">
              <mxPoint x="680" y="395" />
            </Array>
          </mxGeometry>
        </mxCell>
        <mxCell id="QQ0hsMi-_QrQO46xUWMQ-152" style="edgeStyle=orthogonalEdgeStyle;rounded=0;orthogonalLoop=1;jettySize=auto;html=1;exitX=1;exitY=0.5;exitDx=0;exitDy=0;" parent="1" source="QQ0hsMi-_QrQO46xUWMQ-100" edge="1">
          <mxGeometry relative="1" as="geometry">
            <mxPoint x="962" y="486" as="targetPoint" />
          </mxGeometry>
        </mxCell>
        <mxCell id="QQ0hsMi-_QrQO46xUWMQ-100" value="clz" style="rounded=0;whiteSpace=wrap;html=1;" parent="1" vertex="1">
          <mxGeometry x="715" y="372.5" width="50" height="45" as="geometry" />
        </mxCell>
        <mxCell id="QQ0hsMi-_QrQO46xUWMQ-176" style="edgeStyle=orthogonalEdgeStyle;rounded=0;orthogonalLoop=1;jettySize=auto;html=1;exitX=1;exitY=0.25;exitDx=0;exitDy=0;entryX=0;entryY=0.75;entryDx=0;entryDy=0;" parent="1" source="QQ0hsMi-_QrQO46xUWMQ-103" target="QQ0hsMi-_QrQO46xUWMQ-173" edge="1">
          <mxGeometry relative="1" as="geometry" />
        </mxCell>
        <mxCell id="QQ0hsMi-_QrQO46xUWMQ-185" style="edgeStyle=orthogonalEdgeStyle;rounded=0;orthogonalLoop=1;jettySize=auto;html=1;exitX=1;exitY=0.75;exitDx=0;exitDy=0;entryX=0;entryY=0.25;entryDx=0;entryDy=0;" parent="1" source="QQ0hsMi-_QrQO46xUWMQ-103" target="QQ0hsMi-_QrQO46xUWMQ-179" edge="1">
          <mxGeometry relative="1" as="geometry" />
        </mxCell>
        <mxCell id="QQ0hsMi-_QrQO46xUWMQ-103" value="DIV/DIVU&lt;br&gt;MUL/MULTU" style="rounded=0;whiteSpace=wrap;html=1;" parent="1" vertex="1">
          <mxGeometry x="1050" y="685" width="105" height="60" as="geometry" />
        </mxCell>
        <mxCell id="QQ0hsMi-_QrQO46xUWMQ-105" style="edgeStyle=orthogonalEdgeStyle;rounded=0;orthogonalLoop=1;jettySize=auto;html=1;exitX=1;exitY=0.5;exitDx=0;exitDy=0;entryX=0;entryY=0.5;entryDx=0;entryDy=0;" parent="1" source="QQ0hsMi-_QrQO46xUWMQ-104" target="QQ0hsMi-_QrQO46xUWMQ-1" edge="1">
          <mxGeometry relative="1" as="geometry" />
        </mxCell>
        <mxCell id="QQ0hsMi-_QrQO46xUWMQ-104" value="MUX3" style="rounded=0;whiteSpace=wrap;html=1;" parent="1" vertex="1">
          <mxGeometry x="20" y="485" width="40" height="115" as="geometry" />
        </mxCell>
        <mxCell id="QQ0hsMi-_QrQO46xUWMQ-109" style="edgeStyle=orthogonalEdgeStyle;rounded=0;orthogonalLoop=1;jettySize=auto;html=1;exitX=1;exitY=0.5;exitDx=0;exitDy=0;entryX=-0.016;entryY=0.527;entryDx=0;entryDy=0;entryPerimeter=0;" parent="1" source="QQ0hsMi-_QrQO46xUWMQ-106" target="QQ0hsMi-_QrQO46xUWMQ-82" edge="1">
          <mxGeometry relative="1" as="geometry" />
        </mxCell>
        <mxCell id="QQ0hsMi-_QrQO46xUWMQ-106" value="Z" style="rounded=0;whiteSpace=wrap;html=1;" parent="1" vertex="1">
          <mxGeometry x="942" y="541" width="30" height="37" as="geometry" />
        </mxCell>
        <mxCell id="QQ0hsMi-_QrQO46xUWMQ-111" style="edgeStyle=orthogonalEdgeStyle;rounded=0;orthogonalLoop=1;jettySize=auto;html=1;entryX=0;entryY=0.137;entryDx=0;entryDy=0;entryPerimeter=0;" parent="1" source="QQ0hsMi-_QrQO46xUWMQ-110" target="QQ0hsMi-_QrQO46xUWMQ-104" edge="1">
          <mxGeometry relative="1" as="geometry" />
        </mxCell>
        <mxCell id="QQ0hsMi-_QrQO46xUWMQ-110" value="Z" style="text;html=1;align=center;verticalAlign=middle;resizable=0;points=[];autosize=1;strokeColor=none;fillColor=none;" parent="1" vertex="1">
          <mxGeometry x="-50" y="485" width="30" height="30" as="geometry" />
        </mxCell>
        <mxCell id="QQ0hsMi-_QrQO46xUWMQ-126" style="edgeStyle=orthogonalEdgeStyle;rounded=0;orthogonalLoop=1;jettySize=auto;html=1;entryX=-0.02;entryY=0.376;entryDx=0;entryDy=0;entryPerimeter=0;" parent="1" source="QQ0hsMi-_QrQO46xUWMQ-112" target="QQ0hsMi-_QrQO46xUWMQ-104" edge="1">
          <mxGeometry relative="1" as="geometry" />
        </mxCell>
        <mxCell id="QQ0hsMi-_QrQO46xUWMQ-112" value="{z[31:28],imm[25:0],00}" style="text;html=1;align=center;verticalAlign=middle;resizable=0;points=[];autosize=1;strokeColor=none;fillColor=none;" parent="1" vertex="1">
          <mxGeometry x="-180" y="517" width="141" height="26" as="geometry" />
        </mxCell>
        <mxCell id="QQ0hsMi-_QrQO46xUWMQ-115" style="edgeStyle=orthogonalEdgeStyle;rounded=0;orthogonalLoop=1;jettySize=auto;html=1;entryX=0.019;entryY=0.147;entryDx=0;entryDy=0;entryPerimeter=0;" parent="1" source="QQ0hsMi-_QrQO46xUWMQ-114" target="QQ0hsMi-_QrQO46xUWMQ-103" edge="1">
          <mxGeometry relative="1" as="geometry" />
        </mxCell>
        <mxCell id="QQ0hsMi-_QrQO46xUWMQ-114" value="rs" style="text;html=1;align=center;verticalAlign=middle;resizable=0;points=[];autosize=1;strokeColor=none;fillColor=none;" parent="1" vertex="1">
          <mxGeometry x="975" y="678" width="30" height="30" as="geometry" />
        </mxCell>
        <mxCell id="QQ0hsMi-_QrQO46xUWMQ-117" style="edgeStyle=orthogonalEdgeStyle;rounded=0;orthogonalLoop=1;jettySize=auto;html=1;entryX=0;entryY=0.75;entryDx=0;entryDy=0;" parent="1" source="QQ0hsMi-_QrQO46xUWMQ-116" target="QQ0hsMi-_QrQO46xUWMQ-103" edge="1">
          <mxGeometry relative="1" as="geometry" />
        </mxCell>
        <mxCell id="QQ0hsMi-_QrQO46xUWMQ-116" value="rt" style="text;html=1;align=center;verticalAlign=middle;resizable=0;points=[];autosize=1;strokeColor=none;fillColor=none;" parent="1" vertex="1">
          <mxGeometry x="975" y="715" width="30" height="30" as="geometry" />
        </mxCell>
        <mxCell id="QQ0hsMi-_QrQO46xUWMQ-190" style="edgeStyle=orthogonalEdgeStyle;rounded=0;orthogonalLoop=1;jettySize=auto;html=1;exitX=1;exitY=0.5;exitDx=0;exitDy=0;entryX=-0.053;entryY=0.427;entryDx=0;entryDy=0;entryPerimeter=0;" parent="1" source="QQ0hsMi-_QrQO46xUWMQ-118" target="QQ0hsMi-_QrQO46xUWMQ-155" edge="1">
          <mxGeometry relative="1" as="geometry" />
        </mxCell>
        <mxCell id="QQ0hsMi-_QrQO46xUWMQ-118" value="HI" style="rounded=0;whiteSpace=wrap;html=1;" parent="1" vertex="1">
          <mxGeometry x="1270" y="657.5" width="50" height="45" as="geometry" />
        </mxCell>
        <mxCell id="QQ0hsMi-_QrQO46xUWMQ-191" style="edgeStyle=orthogonalEdgeStyle;rounded=0;orthogonalLoop=1;jettySize=auto;html=1;exitX=1;exitY=0.5;exitDx=0;exitDy=0;entryX=-0.133;entryY=0.73;entryDx=0;entryDy=0;entryPerimeter=0;" parent="1" source="QQ0hsMi-_QrQO46xUWMQ-119" target="QQ0hsMi-_QrQO46xUWMQ-156" edge="1">
          <mxGeometry relative="1" as="geometry" />
        </mxCell>
        <mxCell id="QQ0hsMi-_QrQO46xUWMQ-119" value="LO" style="rounded=0;whiteSpace=wrap;html=1;" parent="1" vertex="1">
          <mxGeometry x="1270" y="736.25" width="50" height="45" as="geometry" />
        </mxCell>
        <mxCell id="QQ0hsMi-_QrQO46xUWMQ-127" style="edgeStyle=orthogonalEdgeStyle;rounded=0;orthogonalLoop=1;jettySize=auto;html=1;entryX=0;entryY=0.696;entryDx=0;entryDy=0;entryPerimeter=0;" parent="1" source="QQ0hsMi-_QrQO46xUWMQ-123" target="QQ0hsMi-_QrQO46xUWMQ-104" edge="1">
          <mxGeometry relative="1" as="geometry" />
        </mxCell>
        <mxCell id="QQ0hsMi-_QrQO46xUWMQ-123" value="exc_addr" style="text;html=1;align=center;verticalAlign=middle;resizable=0;points=[];autosize=1;strokeColor=none;fillColor=none;" parent="1" vertex="1">
          <mxGeometry x="-90" y="550" width="70" height="30" as="geometry" />
        </mxCell>
        <mxCell id="QQ0hsMi-_QrQO46xUWMQ-125" value="status" style="text;html=1;align=center;verticalAlign=middle;resizable=0;points=[];autosize=1;strokeColor=none;fillColor=none;" parent="1" vertex="1">
          <mxGeometry x="750" y="890" width="60" height="30" as="geometry" />
        </mxCell>
        <mxCell id="QQ0hsMi-_QrQO46xUWMQ-129" style="edgeStyle=orthogonalEdgeStyle;rounded=0;orthogonalLoop=1;jettySize=auto;html=1;entryX=0.02;entryY=0.918;entryDx=0;entryDy=0;entryPerimeter=0;" parent="1" source="QQ0hsMi-_QrQO46xUWMQ-128" target="QQ0hsMi-_QrQO46xUWMQ-104" edge="1">
          <mxGeometry relative="1" as="geometry" />
        </mxCell>
        <mxCell id="QQ0hsMi-_QrQO46xUWMQ-128" value="rs" style="text;html=1;align=center;verticalAlign=middle;resizable=0;points=[];autosize=1;strokeColor=none;fillColor=none;" parent="1" vertex="1">
          <mxGeometry x="-70" y="580" width="30" height="30" as="geometry" />
        </mxCell>
        <mxCell id="QQ0hsMi-_QrQO46xUWMQ-130" value="M3[1:0]" style="text;html=1;align=center;verticalAlign=middle;resizable=0;points=[];autosize=1;strokeColor=none;fillColor=none;" parent="1" vertex="1">
          <mxGeometry x="15" y="610" width="60" height="30" as="geometry" />
        </mxCell>
        <mxCell id="QQ0hsMi-_QrQO46xUWMQ-134" style="edgeStyle=orthogonalEdgeStyle;rounded=0;orthogonalLoop=1;jettySize=auto;html=1;exitX=-0.008;exitY=0.16;exitDx=0;exitDy=0;entryX=0.5;entryY=1;entryDx=0;entryDy=0;exitPerimeter=0;" parent="1" source="QQ0hsMi-_QrQO46xUWMQ-81" target="QQ0hsMi-_QrQO46xUWMQ-131" edge="1">
          <mxGeometry relative="1" as="geometry">
            <mxPoint x="1030" y="460" as="sourcePoint" />
          </mxGeometry>
        </mxCell>
        <mxCell id="QQ0hsMi-_QrQO46xUWMQ-207" style="edgeStyle=orthogonalEdgeStyle;rounded=0;orthogonalLoop=1;jettySize=auto;html=1;exitX=0.5;exitY=0;exitDx=0;exitDy=0;" parent="1" source="QQ0hsMi-_QrQO46xUWMQ-131" edge="1">
          <mxGeometry relative="1" as="geometry">
            <mxPoint x="752" y="231" as="targetPoint" />
            <Array as="points">
              <mxPoint x="1030" y="231" />
            </Array>
          </mxGeometry>
        </mxCell>
        <mxCell id="QQ0hsMi-_QrQO46xUWMQ-131" value="EXT" style="whiteSpace=wrap;html=1;aspect=fixed;" parent="1" vertex="1">
          <mxGeometry x="1005" y="340" width="50" height="50" as="geometry" />
        </mxCell>
        <mxCell id="QQ0hsMi-_QrQO46xUWMQ-136" value="signed" style="text;html=1;align=center;verticalAlign=middle;resizable=0;points=[];autosize=1;strokeColor=none;fillColor=none;" parent="1" vertex="1">
          <mxGeometry x="1060" y="372.5" width="60" height="30" as="geometry" />
        </mxCell>
        <mxCell id="QQ0hsMi-_QrQO46xUWMQ-139" value="choice[1:0](word,halfword,byte)" style="text;html=1;align=center;verticalAlign=middle;resizable=0;points=[];autosize=1;strokeColor=none;fillColor=none;" parent="1" vertex="1">
          <mxGeometry x="1020" y="580" width="190" height="30" as="geometry" />
        </mxCell>
        <mxCell id="QQ0hsMi-_QrQO46xUWMQ-144" style="edgeStyle=orthogonalEdgeStyle;rounded=0;orthogonalLoop=1;jettySize=auto;html=1;exitX=0.5;exitY=1;exitDx=0;exitDy=0;entryX=0;entryY=0.25;entryDx=0;entryDy=0;" parent="1" source="QQ0hsMi-_QrQO46xUWMQ-142" target="QQ0hsMi-_QrQO46xUWMQ-41" edge="1">
          <mxGeometry relative="1" as="geometry" />
        </mxCell>
        <mxCell id="QQ0hsMi-_QrQO46xUWMQ-142" value="reg_temp" style="rounded=0;whiteSpace=wrap;html=1;" parent="1" vertex="1">
          <mxGeometry x="595" y="775" width="70" height="35" as="geometry" />
        </mxCell>
        <mxCell id="QQ0hsMi-_QrQO46xUWMQ-147" style="edgeStyle=orthogonalEdgeStyle;rounded=0;orthogonalLoop=1;jettySize=auto;html=1;entryX=0;entryY=0.5;entryDx=0;entryDy=0;" parent="1" source="QQ0hsMi-_QrQO46xUWMQ-146" target="QQ0hsMi-_QrQO46xUWMQ-142" edge="1">
          <mxGeometry relative="1" as="geometry" />
        </mxCell>
        <mxCell id="QQ0hsMi-_QrQO46xUWMQ-146" value="rd" style="text;html=1;align=center;verticalAlign=middle;resizable=0;points=[];autosize=1;strokeColor=none;fillColor=none;" parent="1" vertex="1">
          <mxGeometry x="515" y="778" width="30" height="30" as="geometry" />
        </mxCell>
        <mxCell id="QQ0hsMi-_QrQO46xUWMQ-149" value="cp0" style="text;html=1;align=center;verticalAlign=middle;resizable=0;points=[];autosize=1;strokeColor=none;fillColor=none;" parent="1" vertex="1">
          <mxGeometry x="830" y="808" width="40" height="30" as="geometry" />
        </mxCell>
        <mxCell id="QQ0hsMi-_QrQO46xUWMQ-151" style="edgeStyle=orthogonalEdgeStyle;rounded=0;orthogonalLoop=1;jettySize=auto;html=1;entryX=1.07;entryY=0.106;entryDx=0;entryDy=0;entryPerimeter=0;" parent="1" source="QQ0hsMi-_QrQO46xUWMQ-150" target="QQ0hsMi-_QrQO46xUWMQ-87" edge="1">
          <mxGeometry relative="1" as="geometry" />
        </mxCell>
        <mxCell id="QQ0hsMi-_QrQO46xUWMQ-150" value="cp0" style="text;html=1;align=center;verticalAlign=middle;resizable=0;points=[];autosize=1;strokeColor=none;fillColor=none;" parent="1" vertex="1">
          <mxGeometry x="805" y="177" width="40" height="30" as="geometry" />
        </mxCell>
        <mxCell id="QQ0hsMi-_QrQO46xUWMQ-155" value="hi" style="text;html=1;align=center;verticalAlign=middle;resizable=0;points=[];autosize=1;strokeColor=none;fillColor=none;" parent="1" vertex="1">
          <mxGeometry x="1370" y="665" width="30" height="30" as="geometry" />
        </mxCell>
        <mxCell id="QQ0hsMi-_QrQO46xUWMQ-156" value="lo" style="text;html=1;align=center;verticalAlign=middle;resizable=0;points=[];autosize=1;strokeColor=none;fillColor=none;" parent="1" vertex="1">
          <mxGeometry x="1360" y="737.5" width="30" height="30" as="geometry" />
        </mxCell>
        <mxCell id="QQ0hsMi-_QrQO46xUWMQ-210" style="edgeStyle=orthogonalEdgeStyle;rounded=0;orthogonalLoop=1;jettySize=auto;html=1;" parent="1" source="QQ0hsMi-_QrQO46xUWMQ-157" edge="1">
          <mxGeometry relative="1" as="geometry">
            <mxPoint x="756" y="302" as="targetPoint" />
          </mxGeometry>
        </mxCell>
        <mxCell id="QQ0hsMi-_QrQO46xUWMQ-157" value="hi" style="text;html=1;align=center;verticalAlign=middle;resizable=0;points=[];autosize=1;strokeColor=none;fillColor=none;" parent="1" vertex="1">
          <mxGeometry x="808" y="287" width="30" height="30" as="geometry" />
        </mxCell>
        <mxCell id="QQ0hsMi-_QrQO46xUWMQ-209" style="edgeStyle=orthogonalEdgeStyle;rounded=0;orthogonalLoop=1;jettySize=auto;html=1;" parent="1" source="QQ0hsMi-_QrQO46xUWMQ-158" edge="1">
          <mxGeometry relative="1" as="geometry">
            <mxPoint x="753.6000366210938" y="275" as="targetPoint" />
          </mxGeometry>
        </mxCell>
        <mxCell id="QQ0hsMi-_QrQO46xUWMQ-158" value="lo" style="text;html=1;align=center;verticalAlign=middle;resizable=0;points=[];autosize=1;strokeColor=none;fillColor=none;" parent="1" vertex="1">
          <mxGeometry x="808" y="260" width="30" height="30" as="geometry" />
        </mxCell>
        <mxCell id="QQ0hsMi-_QrQO46xUWMQ-161" value="addr" style="text;html=1;align=center;verticalAlign=middle;resizable=0;points=[];autosize=1;strokeColor=none;fillColor=none;" parent="1" vertex="1">
          <mxGeometry x="695" y="830" width="50" height="30" as="geometry" />
        </mxCell>
        <mxCell id="QQ0hsMi-_QrQO46xUWMQ-162" value="data" style="text;html=1;align=center;verticalAlign=middle;resizable=0;points=[];autosize=1;strokeColor=none;fillColor=none;" parent="1" vertex="1">
          <mxGeometry x="695" y="900" width="50" height="30" as="geometry" />
        </mxCell>
        <mxCell id="QQ0hsMi-_QrQO46xUWMQ-164" style="edgeStyle=orthogonalEdgeStyle;rounded=0;orthogonalLoop=1;jettySize=auto;html=1;" parent="1" source="QQ0hsMi-_QrQO46xUWMQ-163" target="QQ0hsMi-_QrQO46xUWMQ-162" edge="1">
          <mxGeometry relative="1" as="geometry" />
        </mxCell>
        <mxCell id="QQ0hsMi-_QrQO46xUWMQ-163" value="rt" style="text;html=1;align=center;verticalAlign=middle;resizable=0;points=[];autosize=1;strokeColor=none;fillColor=none;" parent="1" vertex="1">
          <mxGeometry x="580" y="900" width="30" height="30" as="geometry" />
        </mxCell>
        <mxCell id="QQ0hsMi-_QrQO46xUWMQ-165" value="epc" style="text;html=1;align=center;verticalAlign=middle;resizable=0;points=[];autosize=1;strokeColor=none;fillColor=none;" parent="1" vertex="1">
          <mxGeometry x="760" y="900" width="40" height="30" as="geometry" />
        </mxCell>
        <mxCell id="QQ0hsMi-_QrQO46xUWMQ-166" value="cause" style="text;html=1;align=center;verticalAlign=middle;resizable=0;points=[];autosize=1;strokeColor=none;fillColor=none;" parent="1" vertex="1">
          <mxGeometry x="750" y="910" width="60" height="30" as="geometry" />
        </mxCell>
        <mxCell id="QQ0hsMi-_QrQO46xUWMQ-178" style="edgeStyle=orthogonalEdgeStyle;rounded=0;orthogonalLoop=1;jettySize=auto;html=1;exitX=1;exitY=0.5;exitDx=0;exitDy=0;entryX=0;entryY=0.5;entryDx=0;entryDy=0;" parent="1" source="QQ0hsMi-_QrQO46xUWMQ-173" target="QQ0hsMi-_QrQO46xUWMQ-118" edge="1">
          <mxGeometry relative="1" as="geometry" />
        </mxCell>
        <mxCell id="QQ0hsMi-_QrQO46xUWMQ-173" value="MUX6" style="rounded=0;whiteSpace=wrap;html=1;" parent="1" vertex="1">
          <mxGeometry x="1200" y="650.5" width="40" height="57.5" as="geometry" />
        </mxCell>
        <mxCell id="QQ0hsMi-_QrQO46xUWMQ-175" style="edgeStyle=orthogonalEdgeStyle;rounded=0;orthogonalLoop=1;jettySize=auto;html=1;entryX=0;entryY=0.5;entryDx=0;entryDy=0;" parent="1" source="QQ0hsMi-_QrQO46xUWMQ-174" target="QQ0hsMi-_QrQO46xUWMQ-173" edge="1">
          <mxGeometry relative="1" as="geometry" />
        </mxCell>
        <mxCell id="QQ0hsMi-_QrQO46xUWMQ-174" value="rs" style="text;html=1;align=center;verticalAlign=middle;resizable=0;points=[];autosize=1;strokeColor=none;fillColor=none;" parent="1" vertex="1">
          <mxGeometry x="1111" y="622" width="28" height="26" as="geometry" />
        </mxCell>
        <mxCell id="QQ0hsMi-_QrQO46xUWMQ-184" style="edgeStyle=orthogonalEdgeStyle;rounded=0;orthogonalLoop=1;jettySize=auto;html=1;exitX=1;exitY=0.5;exitDx=0;exitDy=0;entryX=0;entryY=0.5;entryDx=0;entryDy=0;" parent="1" source="QQ0hsMi-_QrQO46xUWMQ-179" target="QQ0hsMi-_QrQO46xUWMQ-119" edge="1">
          <mxGeometry relative="1" as="geometry" />
        </mxCell>
        <mxCell id="QQ0hsMi-_QrQO46xUWMQ-179" value="MUX7" style="rounded=0;whiteSpace=wrap;html=1;" parent="1" vertex="1">
          <mxGeometry x="1200" y="730" width="40" height="57.5" as="geometry" />
        </mxCell>
        <mxCell id="QQ0hsMi-_QrQO46xUWMQ-180" value="hi_w" style="text;html=1;align=center;verticalAlign=middle;resizable=0;points=[];autosize=1;strokeColor=none;fillColor=none;" parent="1" vertex="1">
          <mxGeometry x="1270" y="615" width="50" height="30" as="geometry" />
        </mxCell>
        <mxCell id="QQ0hsMi-_QrQO46xUWMQ-181" value="lo_w" style="text;html=1;align=center;verticalAlign=middle;resizable=0;points=[];autosize=1;strokeColor=none;fillColor=none;" parent="1" vertex="1">
          <mxGeometry x="1270" y="787.5" width="50" height="30" as="geometry" />
        </mxCell>
        <mxCell id="QQ0hsMi-_QrQO46xUWMQ-187" style="edgeStyle=orthogonalEdgeStyle;rounded=0;orthogonalLoop=1;jettySize=auto;html=1;entryX=0;entryY=0.75;entryDx=0;entryDy=0;" parent="1" source="QQ0hsMi-_QrQO46xUWMQ-186" target="QQ0hsMi-_QrQO46xUWMQ-179" edge="1">
          <mxGeometry relative="1" as="geometry" />
        </mxCell>
        <mxCell id="QQ0hsMi-_QrQO46xUWMQ-186" value="rs" style="text;html=1;align=center;verticalAlign=middle;resizable=0;points=[];autosize=1;strokeColor=none;fillColor=none;" parent="1" vertex="1">
          <mxGeometry x="1126" y="770" width="28" height="26" as="geometry" />
        </mxCell>
        <mxCell id="QQ0hsMi-_QrQO46xUWMQ-188" value="M7" style="text;html=1;align=center;verticalAlign=middle;resizable=0;points=[];autosize=1;strokeColor=none;fillColor=none;" parent="1" vertex="1">
          <mxGeometry x="1200" y="787.5" width="40" height="30" as="geometry" />
        </mxCell>
        <mxCell id="QQ0hsMi-_QrQO46xUWMQ-189" value="M6" style="text;html=1;align=center;verticalAlign=middle;resizable=0;points=[];autosize=1;strokeColor=none;fillColor=none;" parent="1" vertex="1">
          <mxGeometry x="1200" y="702.5" width="40" height="30" as="geometry" />
        </mxCell>
        <mxCell id="QQ0hsMi-_QrQO46xUWMQ-192" value="cp0_w" style="text;html=1;align=center;verticalAlign=middle;resizable=0;points=[];autosize=1;strokeColor=none;fillColor=none;" parent="1" vertex="1">
          <mxGeometry x="720" y="944" width="53" height="26" as="geometry" />
        </mxCell>
        <mxCell id="QQ0hsMi-_QrQO46xUWMQ-193" value="ir_in" style="text;html=1;align=center;verticalAlign=middle;resizable=0;points=[];autosize=1;strokeColor=none;fillColor=none;" parent="1" vertex="1">
          <mxGeometry x="291" y="622" width="41" height="26" as="geometry" />
        </mxCell>
        <mxCell id="QQ0hsMi-_QrQO46xUWMQ-194" value="temp_in" style="text;html=1;align=center;verticalAlign=middle;resizable=0;points=[];autosize=1;strokeColor=none;fillColor=none;" parent="1" vertex="1">
          <mxGeometry x="585" y="736" width="61" height="26" as="geometry" />
        </mxCell>
        <mxCell id="QQ0hsMi-_QrQO46xUWMQ-195" value="z_in" style="text;html=1;align=center;verticalAlign=middle;resizable=0;points=[];autosize=1;strokeColor=none;fillColor=none;" parent="1" vertex="1">
          <mxGeometry x="938" y="590" width="40" height="26" as="geometry" />
        </mxCell>
        <mxCell id="QQ0hsMi-_QrQO46xUWMQ-197" value="choice[1:0](word,halfword,byte)" style="text;html=1;align=center;verticalAlign=middle;resizable=0;points=[];autosize=1;strokeColor=none;fillColor=none;" parent="1" vertex="1">
          <mxGeometry x="1060" y="332" width="190" height="30" as="geometry" />
        </mxCell>
        <mxCell id="QQ0hsMi-_QrQO46xUWMQ-202" style="edgeStyle=orthogonalEdgeStyle;rounded=0;orthogonalLoop=1;jettySize=auto;html=1;exitX=0.5;exitY=1;exitDx=0;exitDy=0;" parent="1" source="QQ0hsMi-_QrQO46xUWMQ-199" edge="1">
          <mxGeometry relative="1" as="geometry">
            <mxPoint x="961.3333333333335" y="540.0000356038413" as="targetPoint" />
          </mxGeometry>
        </mxCell>
        <mxCell id="QQ0hsMi-_QrQO46xUWMQ-199" value="MUX8" style="rounded=0;whiteSpace=wrap;html=1;" parent="1" vertex="1">
          <mxGeometry x="942" y="487" width="38" height="38" as="geometry" />
        </mxCell>
        <mxCell id="QQ0hsMi-_QrQO46xUWMQ-204" value="M_8" style="text;html=1;align=center;verticalAlign=middle;resizable=0;points=[];autosize=1;strokeColor=none;fillColor=none;" parent="1" vertex="1">
          <mxGeometry x="907" y="495" width="41" height="26" as="geometry" />
        </mxCell>
        <mxCell id="QQ0hsMi-_QrQO46xUWMQ-205" value="oalu" style="text;html=1;align=center;verticalAlign=middle;resizable=0;points=[];autosize=1;strokeColor=none;fillColor=none;" parent="1" vertex="1">
          <mxGeometry x="889" y="469" width="41" height="26" as="geometry" />
        </mxCell>
      </root>
    </mxGraphModel>
  </diagram>
</mxfile>
